<?xml version="1.0" encoding="iso-8859-1"?>
<!-- Generator: Adobe Illustrator 19.0.0, SVG Export Plug-In . SVG Version: 6.00 Build 0)  -->
<svg version="1.1" id="Capa_1" xmlns="http://www.w3.org/2000/svg" xmlns:xlink="http://www.w3.org/1999/xlink" x="0px" y="0px"
	 viewBox="0 0 512 512" style="enable-background:new 0 0 512 512;" xml:space="preserve">
<circle style="fill:#FFE17D;" cx="256" cy="256" r="256"/>
<path style="fill:#FFD164;" d="M293.161,474.839c-141.385,0-256-114.615-256-256c0-61.227,21.521-117.411,57.376-161.463
	C36.863,104.316,0,175.842,0,256c0,141.385,114.615,256,256,256c80.159,0,151.685-36.864,198.626-94.538
	C410.573,453.317,354.389,474.839,293.161,474.839z"/>
<path style="fill:#9C6846;" d="M255.941,375.381c28.299,0,55.312,3.044,80.095,8.545c3.21,0.713,5.977-2.394,4.986-5.631
	c-11.429-37.375-45.164-64.489-85.081-64.489s-73.652,27.114-85.081,64.489c-0.99,3.238,1.776,6.344,4.986,5.631
	C200.629,378.425,227.642,375.381,255.941,375.381z"/>
<path style="fill:#A5CDFF;" d="M74.323,429.419c27.365,0,49.548-22.184,49.548-49.548c0-40.843-33.668-92.909-45.498-109.943
	c-1.963-2.826-6.138-2.826-8.101,0c-11.83,17.034-45.498,69.1-45.498,109.943C24.774,407.236,46.958,429.419,74.323,429.419z"/>
<path style="fill:#8CB4EB;" d="M48.132,388.871c0-30.006,18.163-80.48,32.498-115.648c-0.812-1.198-1.579-2.319-2.256-3.295
	c-1.963-2.827-6.139-2.827-8.101,0c-11.83,17.034-45.498,69.099-45.498,109.943c0,25.414,19.207,46.119,43.856,48.975
	C56.26,419.837,48.132,405.346,48.132,388.871z"/>
<path style="fill:#7D5046;" d="M169.29,264.258L169.29,264.258c-11.402,0-20.645-9.243-20.645-20.645v-16.516
	c0-11.402,9.243-20.645,20.645-20.645l0,0c11.402,0,20.645,9.243,20.645,20.645v16.516
	C189.935,255.015,180.692,264.258,169.29,264.258z"/>
<path style="fill:#9C6846;" d="M169.29,206.452c-1.414,0-2.794,0.145-4.129,0.416v28.487c0,6.841,5.546,12.387,12.387,12.387
	s12.387-5.546,12.387-12.387v-8.258C189.935,215.695,180.693,206.452,169.29,206.452z"/>
<path style="fill:#7D5046;" d="M342.71,264.258L342.71,264.258c-11.402,0-20.645-9.243-20.645-20.645v-16.516
	c0-11.402,9.243-20.645,20.645-20.645l0,0c11.402,0,20.645,9.243,20.645,20.645v16.516
	C363.355,255.015,354.112,264.258,342.71,264.258z"/>
<path style="fill:#9C6846;" d="M342.71,206.452c-1.414,0-2.794,0.145-4.129,0.416v28.487c0,6.841,5.546,12.387,12.387,12.387
	s12.387-5.546,12.387-12.387v-8.258C363.355,215.695,354.112,206.452,342.71,206.452z"/>
<path style="fill:#7D5046;" d="M255.94,338.581c24.679,0,48.016,3.3,69.003,9.101c-16.356-20.662-41.162-33.875-69.002-33.875
	c-27.841,0-52.647,13.213-69.002,33.875C207.925,341.881,231.261,338.581,255.94,338.581z"/>
<path style="fill:#C4DEFF;" d="M256,143.14c108.419,0,203.021,58.901,253.742,146.404C511.18,278.558,512,267.378,512,256
	C512,114.615,397.385,0,256,0S0,114.615,0,256c0,11.378,0.82,22.558,2.258,33.543C52.979,202.04,147.581,143.14,256,143.14z"/>
<g>
	<path style="fill:#AA7346;" d="M107.347,192.004c-4.492,0-8.621-2.956-9.919-7.492c-1.565-5.48,1.613-11.194,7.089-12.758
		c54.048-15.444,77.919-38.468,78.153-38.698c4.048-3.98,10.581-3.956,14.581,0.081c4,4.036,4,10.532-0.016,14.548
		c-1.089,1.089-27.355,26.863-87.04,43.915C109.242,191.875,108.29,192.004,107.347,192.004z"/>
	<path style="fill:#AA7346;" d="M404.653,192.004c-0.944,0-1.895-0.129-2.847-0.403c-59.685-17.052-85.952-42.827-87.04-43.915
		c-4.032-4.032-4.032-10.565,0-14.597s10.565-4.032,14.597,0c0.202,0.198,24.073,23.222,78.121,38.665
		c5.476,1.565,8.653,7.278,7.089,12.758C413.274,189.048,409.145,192.004,404.653,192.004z"/>
</g>
<path style="fill:#A5CDFF;" d="M37.161,218.839c0-61.227,21.521-117.411,57.376-161.463C36.863,104.316,0,175.842,0,256
	c0,11.378,0.82,22.558,2.258,33.543l0,0c10.23-17.648,22.322-34.061,35.875-49.134C37.539,233.291,37.161,226.111,37.161,218.839z"
	/>
<g>
</g>
<g>
</g>
<g>
</g>
<g>
</g>
<g>
</g>
<g>
</g>
<g>
</g>
<g>
</g>
<g>
</g>
<g>
</g>
<g>
</g>
<g>
</g>
<g>
</g>
<g>
</g>
<g>
</g>
</svg>
