<svg width="134" height="33" viewBox="0 0 134 33" fill="none" xmlns="http://www.w3.org/2000/svg">
<path d="M39.632 8.864C41.84 8.864 43.448 9.344 44.456 10.304C45.48 11.248 45.992 12.552 45.992 14.216C45.992 15.208 45.784 16.144 45.368 17.024C44.952 17.888 44.256 18.584 43.28 19.112C42.32 19.64 41.008 19.904 39.344 19.904H37.784V26H34.16V8.864H39.632ZM39.44 11.84H37.784V16.928H38.984C40.008 16.928 40.816 16.728 41.408 16.328C42.016 15.912 42.32 15.248 42.32 14.336C42.32 12.672 41.36 11.84 39.44 11.84ZM60.8463 19.424C60.8463 21.6 60.2703 23.28 59.1183 24.464C57.9823 25.648 56.4303 26.24 54.4623 26.24C53.2463 26.24 52.1583 25.976 51.1983 25.448C50.2543 24.92 49.5103 24.152 48.9663 23.144C48.4223 22.12 48.1503 20.88 48.1503 19.424C48.1503 17.248 48.7183 15.576 49.8543 14.408C50.9903 13.24 52.5503 12.656 54.5343 12.656C55.7663 12.656 56.8543 12.92 57.7983 13.448C58.7423 13.976 59.4863 14.744 60.0303 15.752C60.5743 16.744 60.8463 17.968 60.8463 19.424ZM51.7983 19.424C51.7983 20.72 52.0063 21.704 52.4223 22.376C52.8543 23.032 53.5503 23.36 54.5103 23.36C55.4543 23.36 56.1343 23.032 56.5503 22.376C56.9823 21.704 57.1983 20.72 57.1983 19.424C57.1983 18.128 56.9823 17.16 56.5503 16.52C56.1343 15.864 55.4463 15.536 54.4863 15.536C53.5423 15.536 52.8543 15.864 52.4223 16.52C52.0063 17.16 51.7983 18.128 51.7983 19.424ZM67.3777 15.92C67.3777 16.416 67.3537 16.912 67.3057 17.408C67.2737 17.888 67.2337 18.376 67.1857 18.872H67.2337C67.4737 18.536 67.7217 18.2 67.9777 17.864C68.2337 17.512 68.5057 17.184 68.7937 16.88L72.4657 12.896H76.4977L71.2897 18.584L76.8097 26H72.6817L68.9137 20.696L67.3777 21.92V26H63.8017V7.76H67.3777V15.92ZM84.0845 12.656C85.8925 12.656 87.3245 13.176 88.3805 14.216C89.4365 15.24 89.9645 16.704 89.9645 18.608V20.336H81.5165C81.5485 21.344 81.8445 22.136 82.4045 22.712C82.9805 23.288 83.7725 23.576 84.7805 23.576C85.6285 23.576 86.3965 23.496 87.0845 23.336C87.7725 23.16 88.4845 22.896 89.2205 22.544V25.304C88.5805 25.624 87.9005 25.856 87.1805 26C86.4765 26.16 85.6205 26.24 84.6125 26.24C83.3005 26.24 82.1405 26 81.1325 25.52C80.1245 25.024 79.3325 24.28 78.7565 23.288C78.1805 22.296 77.8925 21.048 77.8925 19.544C77.8925 18.008 78.1485 16.736 78.6605 15.728C79.1885 14.704 79.9165 13.936 80.8445 13.424C81.7725 12.912 82.8525 12.656 84.0845 12.656ZM84.1085 15.2C83.4205 15.2 82.8445 15.424 82.3805 15.872C81.9325 16.32 81.6685 17.016 81.5885 17.96H86.6045C86.5885 17.16 86.3805 16.504 85.9805 15.992C85.5805 15.464 84.9565 15.2 84.1085 15.2ZM97.0162 26.24C95.5602 26.24 94.3682 25.672 93.4402 24.536C92.5282 23.384 92.0722 21.696 92.0722 19.472C92.0722 17.232 92.5362 15.536 93.4642 14.384C94.3922 13.232 95.6082 12.656 97.1122 12.656C98.0562 12.656 98.8322 12.84 99.4402 13.208C100.048 13.576 100.528 14.032 100.88 14.576H101C100.952 14.32 100.896 13.952 100.832 13.472C100.768 12.976 100.736 12.472 100.736 11.96V7.76H104.312V26H101.576L100.88 24.296H100.736C100.384 24.84 99.9122 25.304 99.3202 25.688C98.7282 26.056 97.9602 26.24 97.0162 26.24ZM98.2642 23.384C99.2562 23.384 99.9522 23.096 100.352 22.52C100.752 21.928 100.96 21.048 100.976 19.88V19.496C100.976 18.216 100.776 17.24 100.376 16.568C99.9922 15.896 99.2722 15.56 98.2162 15.56C97.4322 15.56 96.8162 15.904 96.3682 16.592C95.9202 17.264 95.6962 18.24 95.6962 19.52C95.6962 20.8 95.9202 21.768 96.3682 22.424C96.8162 23.064 97.4482 23.384 98.2642 23.384ZM113.452 12.656C115.26 12.656 116.692 13.176 117.748 14.216C118.804 15.24 119.332 16.704 119.332 18.608V20.336H110.884C110.916 21.344 111.212 22.136 111.772 22.712C112.348 23.288 113.14 23.576 114.148 23.576C114.996 23.576 115.764 23.496 116.452 23.336C117.14 23.16 117.852 22.896 118.588 22.544V25.304C117.948 25.624 117.268 25.856 116.548 26C115.844 26.16 114.988 26.24 113.98 26.24C112.668 26.24 111.508 26 110.5 25.52C109.492 25.024 108.7 24.28 108.124 23.288C107.548 22.296 107.26 21.048 107.26 19.544C107.26 18.008 107.516 16.736 108.028 15.728C108.556 14.704 109.284 13.936 110.212 13.424C111.14 12.912 112.22 12.656 113.452 12.656ZM113.476 15.2C112.788 15.2 112.212 15.424 111.748 15.872C111.3 16.32 111.036 17.016 110.956 17.96H115.972C115.956 17.16 115.748 16.504 115.348 15.992C114.948 15.464 114.324 15.2 113.476 15.2ZM124.451 19.304L120.227 12.896H124.283L126.827 17.072L129.395 12.896H133.451L129.179 19.304L133.643 26H129.587L126.827 21.512L124.067 26H120.011L124.451 19.304Z" fill="#161A33"/>
<path opacity="0.8" d="M1.49999 17.6081C1.49999 11.8091 7.19999 16.4081 12.1 18.8081C16.5 17.6081 22.7 11.8091 22.7 17.6081C22.7 23.4071 17.899 26.3081 12.1 26.3081C6.301 26.3081 1.49999 23.4071 1.49999 17.6081Z" fill="white"/>
<path d="M22.7 15.3001C22.7 21.0991 17 16.5001 12.1 14.1001C7.7 15.3001 1.5 21.0991 1.5 15.3001C1.5 9.50111 6.30101 6.6001 12.1 6.6001C17.899 6.6001 22.7 9.50111 22.7 15.3001Z" fill="#CD2873"/>
<circle cx="11.85" cy="17.1499" r="2.25" fill="white"/>
<path fill-rule="evenodd" clip-rule="evenodd" d="M0 17C0 10.3726 5.37259 5 12 5C18.6275 5 24 10.3726 24 17C24 23.6275 18.6275 29 12 29C5.37259 29 0 23.6275 0 17ZM2.76119 18.3333C3.40816 22.8564 7.29804 26.3333 12 26.3333C16.702 26.3333 20.5919 22.8564 21.2388 18.3333H15.7724C15.2232 19.8869 13.7416 21 12 21C10.2584 21 8.77668 19.8869 8.22757 18.3333H2.76119ZM21.2388 15.6667C20.5919 11.1436 16.702 7.66667 12 7.66667C7.29804 7.66667 3.40816 11.1436 2.76119 15.6667H8.22757C8.77668 14.1131 10.2584 13 12 13C13.7416 13 15.2232 14.1131 15.7724 15.6667H21.2388ZM12 18.3333C12.7364 18.3333 13.3333 17.7364 13.3333 17C13.3333 16.2636 12.7364 15.6667 12 15.6667C11.2636 15.6667 10.6667 16.2636 10.6667 17C10.6667 17.7364 11.2636 18.3333 12 18.3333Z" fill="#161A33"/>
</svg>
