<svg width="24" height="24" viewBox="0 0 24 24" fill="none" xmlns="http://www.w3.org/2000/svg">
<path opacity="0.8" d="M1.49999 12.6081C1.49999 6.80911 7.19999 11.4081 12.1 13.8081C16.5 12.6081 22.7 6.80911 22.7 12.6081C22.7 18.4071 17.899 21.3081 12.1 21.3081C6.301 21.3081 1.49999 18.4071 1.49999 12.6081Z" fill="white"/>
<path d="M22.7 10.3001C22.7 16.0991 17 11.5001 12.1 9.1001C7.7 10.3001 1.5 16.0991 1.5 10.3001C1.5 4.50111 6.30101 1.6001 12.1 1.6001C17.899 1.6001 22.7 4.50111 22.7 10.3001Z" fill="#CD2873"/>
<circle cx="11.85" cy="12.1499" r="2.25" fill="white"/>
<path fill-rule="evenodd" clip-rule="evenodd" d="M0 12C0 5.37259 5.37259 0 12 0C18.6275 0 24 5.37259 24 12C24 18.6275 18.6275 24 12 24C5.37259 24 0 18.6275 0 12ZM2.76119 13.3333C3.40816 17.8564 7.29804 21.3333 12 21.3333C16.702 21.3333 20.5919 17.8564 21.2388 13.3333H15.7724C15.2232 14.8869 13.7416 16 12 16C10.2584 16 8.77668 14.8869 8.22757 13.3333H2.76119ZM21.2388 10.6667C20.5919 6.14361 16.702 2.66667 12 2.66667C7.29804 2.66667 3.40816 6.14361 2.76119 10.6667H8.22757C8.77668 9.11308 10.2584 8 12 8C13.7416 8 15.2232 9.11308 15.7724 10.6667H21.2388ZM12 13.3333C12.7364 13.3333 13.3333 12.7364 13.3333 12C13.3333 11.2636 12.7364 10.6667 12 10.6667C11.2636 10.6667 10.6667 11.2636 10.6667 12C10.6667 12.7364 11.2636 13.3333 12 13.3333Z" fill="#161A33"/>
</svg>
